<svg width="83" height="27" viewBox="0 0 83 27" fill="none" xmlns="http://www.w3.org/2000/svg">
<path d="M83 1.50721e-05L83 22C83 24.7614 80.7614 27 78 27L5 27C2.23858 27 9.78549e-08 24.7614 2.18561e-07 22L1.18021e-06 1.14441e-05L83 1.50721e-05Z" fill="#202020"/>
<path d="M6.201 19.9999V6.18173H11.7337C12.7502 6.18173 13.5981 6.33241 14.2773 6.63379C14.9566 6.93516 15.4671 7.35348 15.809 7.88876C16.1508 8.41953 16.3217 9.03128 16.3217 9.72399C16.3217 10.2638 16.2138 10.7383 15.9979 11.1476C15.782 11.5525 15.4851 11.8853 15.1072 12.1462C14.7339 12.4026 14.3066 12.5848 13.8253 12.6927V12.8277C14.3516 12.8502 14.8441 12.9986 15.3029 13.273C15.7662 13.5474 16.1418 13.932 16.4297 14.4268C16.7176 14.917 16.8615 15.5018 16.8615 16.181C16.8615 16.9142 16.6793 17.5687 16.315 18.1444C15.9551 18.7157 15.4221 19.1678 14.7159 19.5006C14.0097 19.8335 13.1393 19.9999 12.1048 19.9999H6.201ZM9.12252 17.6114H11.5043C12.3184 17.6114 12.9122 17.4562 13.2855 17.1459C13.6589 16.831 13.8455 16.4127 13.8455 15.8909C13.8455 15.5085 13.7533 15.1712 13.5689 14.8788C13.3845 14.5864 13.1213 14.357 12.7795 14.1906C12.4421 14.0242 12.0395 13.941 11.5717 13.941H9.12252V17.6114ZM9.12252 11.964H11.2884C11.6887 11.964 12.044 11.8943 12.3544 11.7549C12.6693 11.6109 12.9167 11.4085 13.0966 11.1476C13.281 10.8867 13.3732 10.5741 13.3732 10.2098C13.3732 9.71049 13.1956 9.30791 12.8402 9.00204C12.4893 8.69617 11.9901 8.54323 11.3423 8.54323H9.12252V11.964ZM21.6638 20.1956C21.0026 20.1956 20.4133 20.0809 19.896 19.8515C19.3788 19.6176 18.9694 19.2735 18.6681 18.8192C18.3712 18.3603 18.2227 17.7891 18.2227 17.1054C18.2227 16.5296 18.3285 16.0461 18.5399 15.6547C18.7513 15.2634 19.0392 14.9485 19.4035 14.7101C19.7678 14.4717 20.1817 14.2918 20.645 14.1704C21.1128 14.0489 21.6031 13.9634 22.1159 13.914C22.7186 13.851 23.2044 13.7925 23.5732 13.7385C23.9421 13.6801 24.2097 13.5946 24.3762 13.4822C24.5426 13.3697 24.6258 13.2033 24.6258 12.9829V12.9424C24.6258 12.5151 24.4909 12.1844 24.221 11.9505C23.9556 11.7166 23.5777 11.5997 23.0874 11.5997C22.5702 11.5997 22.1586 11.7144 21.8527 11.9438C21.5468 12.1687 21.3444 12.4521 21.2455 12.7939L18.5871 12.578C18.722 11.9483 18.9874 11.404 19.3833 10.9452C19.7791 10.4819 20.2896 10.1266 20.9149 9.87917C21.5446 9.62728 22.2733 9.50133 23.1009 9.50133C23.6767 9.50133 24.2277 9.5688 24.754 9.70374C25.2848 9.83869 25.7548 10.0478 26.1642 10.3312C26.578 10.6146 26.9041 10.979 27.1425 11.4243C27.3809 11.8651 27.5001 12.3936 27.5001 13.0099V19.9999H24.7742V18.5628H24.6933C24.5268 18.8866 24.3042 19.1723 24.0253 19.4197C23.7464 19.6626 23.4113 19.8537 23.02 19.9932C22.6286 20.1281 22.1766 20.1956 21.6638 20.1956ZM22.487 18.2119C22.9098 18.2119 23.2831 18.1287 23.607 17.9623C23.9308 17.7913 24.185 17.5619 24.3694 17.2741C24.5538 16.9862 24.646 16.6601 24.646 16.2957V15.1959C24.5561 15.2544 24.4324 15.3084 24.2749 15.3579C24.122 15.4028 23.9488 15.4456 23.7554 15.4861C23.562 15.522 23.3686 15.5558 23.1752 15.5873C22.9817 15.6143 22.8063 15.639 22.6489 15.6615C22.3115 15.711 22.0169 15.7897 21.765 15.8976C21.5131 16.0056 21.3174 16.1518 21.178 16.3362C21.0386 16.5161 20.9688 16.741 20.9688 17.0109C20.9688 17.4023 21.1105 17.7014 21.3939 17.9083C21.6818 18.1107 22.0461 18.2119 22.487 18.2119ZM35.2425 9.63627V11.7954H29.0013V9.63627H35.2425ZM30.4182 7.15332H33.2925V16.8152C33.2925 17.0806 33.333 17.2876 33.414 17.436C33.4949 17.5799 33.6074 17.6811 33.7513 17.7396C33.8998 17.7981 34.0707 17.8273 34.2641 17.8273C34.3991 17.8273 34.534 17.8161 34.6689 17.7936C34.8039 17.7666 34.9073 17.7464 34.9793 17.7329L35.4314 19.8717C35.2874 19.9167 35.085 19.9684 34.8241 20.0269C34.5632 20.0899 34.2461 20.1281 33.8728 20.1416C33.1801 20.1686 32.5728 20.0764 32.051 19.865C31.5338 19.6536 31.1312 19.3252 30.8433 18.8799C30.5554 18.4346 30.4137 17.8723 30.4182 17.1931V7.15332ZM41.686 20.2023C40.6244 20.2023 39.7113 19.9774 38.9466 19.5276C38.1865 19.0733 37.6017 18.4436 37.1924 17.6384C36.7876 16.8332 36.5851 15.9066 36.5851 14.8586C36.5851 13.797 36.7898 12.8659 37.1991 12.0652C37.613 11.2601 38.2 10.6326 38.9601 10.1828C39.7203 9.72848 40.6244 9.50133 41.6725 9.50133C42.5766 9.50133 43.3683 9.66551 44.0475 9.99387C44.7267 10.3222 45.2642 10.7833 45.6601 11.377C46.0559 11.9708 46.2741 12.668 46.3145 13.4687H43.6022C43.5257 12.9514 43.3233 12.5353 42.9949 12.2204C42.6711 11.9011 42.246 11.7414 41.7197 11.7414C41.2744 11.7414 40.8853 11.8628 40.5525 12.1057C40.2241 12.3441 39.9677 12.6927 39.7833 13.1515C39.5989 13.6103 39.5067 14.1659 39.5067 14.8181C39.5067 15.4793 39.5966 16.0416 39.7765 16.5049C39.961 16.9682 40.2196 17.3213 40.5525 17.5642C40.8853 17.8071 41.2744 17.9285 41.7197 17.9285C42.0481 17.9285 42.3427 17.8611 42.6036 17.7261C42.869 17.5912 43.0872 17.3955 43.2581 17.1391C43.4335 16.8782 43.5482 16.5656 43.6022 16.2013H46.3145C46.2696 16.9929 46.0537 17.6901 45.6668 18.2929C45.2845 18.8911 44.7559 19.3589 44.0812 19.6963C43.4065 20.0336 42.6081 20.2023 41.686 20.2023ZM51.0291 14.0084V19.9999H48.1548V6.18173H50.9482V11.4648H51.0696C51.3035 10.853 51.6813 10.374 52.2031 10.0276C52.7249 9.67675 53.3794 9.50133 54.1665 9.50133C54.8862 9.50133 55.5137 9.65876 56.049 9.97363C56.5888 10.284 57.0071 10.7316 57.304 11.3163C57.6054 11.8966 57.7538 12.5915 57.7493 13.4012V19.9999H54.875V13.914C54.8795 13.2752 54.7176 12.7782 54.3892 12.4228C54.0653 12.0675 53.611 11.8898 53.0263 11.8898C52.6349 11.8898 52.2886 11.973 51.9872 12.1395C51.6903 12.3059 51.4564 12.5488 51.2855 12.8682C51.1191 13.183 51.0336 13.5631 51.0291 14.0084Z" fill="white"/>
<path d="M77.2227 14.3565C77.2227 14.9087 76.7749 15.3565 76.2227 15.3565L72.3574 15.3565L72.3574 19.2217C72.3574 19.774 71.9097 20.2217 71.3574 20.2217L68.8662 20.2217C68.3141 20.2215 67.8662 19.7739 67.8662 19.2217L67.8662 15.3565L64.001 15.3565C63.4487 15.3565 63.001 14.9087 63.001 14.3565L63.001 11.8652C63.001 11.313 63.4487 10.8652 64.001 10.8652L67.8662 10.8652L67.8662 7.00001C67.8662 6.44782 68.3141 6.00016 68.8662 6.00001L71.3574 6.00001C71.9097 6.00001 72.3574 6.44773 72.3574 7.00001L72.3574 10.8652L76.2227 10.8652C76.7749 10.8652 77.2226 11.313 77.2227 11.8652L77.2227 14.3565Z" fill="white"/>
</svg>
