<svg width="127" height="47" viewBox="0 0 127 47" fill="none" xmlns="http://www.w3.org/2000/svg">
<path d="M120.838 8.97668C119.533 10.0369 119.394 9.98619 119.128 8.32318C119.394 9.98548 119.278 10.0771 117.707 9.47932C119.278 10.0778 119.303 10.2252 117.997 11.2875C119.302 10.2252 119.441 10.2787 119.708 11.941C119.441 10.2787 119.557 10.1857 121.128 10.7842C119.557 10.185 119.534 10.0362 120.838 8.97668Z" fill="white"/>
<path d="M118.008 19.4825C117.37 19.7257 117.224 19.6616 116.98 19.0243C117.224 19.6616 117.159 19.8075 116.52 20.0521C117.159 19.8075 117.304 19.8731 117.55 20.5118C117.305 19.8738 117.371 19.7257 118.008 19.4825Z" fill="white"/>
<path d="M121.578 5.21503C120.94 5.45966 120.793 5.3955 120.549 4.7561C120.793 5.3955 120.727 5.54143 120.09 5.78605C120.727 5.54143 120.874 5.60699 121.119 6.24357C120.874 5.60699 120.94 5.45966 121.578 5.21503Z" fill="white"/>
<path d="M118.763 13.6251C117.458 14.6861 117.319 14.6346 117.053 12.9723C117.32 14.6339 117.203 14.7262 115.633 14.127C117.203 14.7262 117.228 14.8729 115.923 15.9359C117.228 14.8736 117.366 14.9257 117.633 16.5894C117.366 14.9271 117.481 14.8334 119.054 15.4333C117.481 14.8334 117.458 14.6861 118.763 13.6251Z" fill="white"/>
<path d="M103.095 21.2915C101.146 22.0903 100.998 21.9747 101.282 19.8887C100.999 21.9747 100.827 22.0466 99.1625 20.7579C100.827 22.0466 100.801 22.2306 98.8516 23.0279C100.801 22.2306 100.948 22.3448 100.665 24.4314C100.948 22.3448 101.121 22.2721 102.785 23.5629C101.121 22.2721 101.146 22.091 103.095 21.2915Z" fill="white"/>
<path d="M125.525 7.96137C123.854 8.93563 123.415 8.8179 122.44 7.14996C123.415 8.81861 123.298 9.26132 121.629 10.2342C123.298 9.26132 123.738 9.37623 124.712 11.0456C123.738 9.37694 123.853 8.93563 125.525 7.96137Z" fill="white"/>
<mask id="mask0_630_694" style="mask-type:luminance" maskUnits="userSpaceOnUse" x="95" y="26" width="5" height="5">
<path d="M95.5781 26.4081H99.9038V30.719H95.5781V26.4081Z" fill="white"/>
</mask>
<g mask="url(#mask0_630_694)">
<path d="M97.0294 26.5097C97.5934 28.2982 97.3883 28.6923 95.5977 29.2548C97.3883 28.6916 97.7809 28.8967 98.3442 30.6859C97.7802 28.8967 97.9861 28.504 99.7767 27.9401C97.9861 28.5047 97.5934 28.2989 97.0294 26.5097Z" fill="white"/>
</g>
<path d="M105.995 20.0261C106.558 21.816 106.353 22.2087 104.562 22.7712C106.353 22.208 106.746 22.4145 107.309 24.2037C106.746 22.4145 106.95 22.019 108.74 21.4572C106.949 22.0198 106.558 21.816 105.995 20.0261Z" fill="white"/>
<path d="M112.449 22.3582C111.812 22.6007 111.664 22.5351 111.421 21.9C111.664 22.5351 111.599 22.6825 110.961 22.9285C111.599 22.6832 111.745 22.7494 111.989 23.3874C111.745 22.7494 111.812 22.6007 112.449 22.3582Z" fill="white"/>
<path d="M122.714 14.3322C122.957 14.9695 122.892 15.1168 122.254 15.3615C122.892 15.1168 123.039 15.1824 123.283 15.8197C123.039 15.1824 123.105 15.0351 123.741 14.7911C123.104 15.0351 122.957 14.9695 122.714 14.3322Z" fill="white"/>
<mask id="mask1_630_694" style="mask-type:luminance" maskUnits="userSpaceOnUse" x="122" y="2" width="5" height="5">
<path d="M122.828 2.43024H126.985V6.55638H122.828V2.43024Z" fill="white"/>
</mask>
<g mask="url(#mask1_630_694)">
<path d="M125.244 2.44287C125.035 4.16016 124.713 4.41112 122.996 4.20246C124.713 4.41112 124.964 4.73188 124.756 6.44917C124.964 4.73118 125.287 4.48092 127.002 4.68958C125.287 4.48162 125.035 4.16016 125.244 2.44287Z" fill="white"/>
</g>
<mask id="mask2_630_694" style="mask-type:luminance" maskUnits="userSpaceOnUse" x="92" y="2" width="24" height="19">
<path d="M92.7422 2.37811H115.603V20.1093H92.7422V2.37811Z" fill="white"/>
</mask>
<g mask="url(#mask2_630_694)">
<path d="M113.223 2.38373H95.1052C93.8053 2.38373 92.7422 3.44681 92.7422 4.74676V17.7448C92.7422 19.0448 93.8053 20.1079 95.1052 20.1079H113.223C114.523 20.1079 115.587 19.0448 115.587 17.7448V4.74676C115.587 3.44681 114.523 2.38373 113.223 2.38373ZM114.799 6.79467C113.972 6.00723 112.869 5.53491 111.727 5.53491H107.552C106.567 5.53491 105.701 4.98292 105.267 4.11652L104.795 3.17117H113.223C114.09 3.17117 114.799 3.88036 114.799 4.74676V6.79467Z" fill="white"/>
</g>
<mask id="mask3_630_694" style="mask-type:luminance" maskUnits="userSpaceOnUse" x="0" y="0" width="125" height="47">
<path d="M124.846 0H0V46.3714H124.846V0Z" fill="white"/>
</mask>
<g mask="url(#mask3_630_694)">
<path d="M25.8924 4.94159C25.9727 4.99446 26.003 5.04804 25.9826 5.10232C25.9636 5.15731 25.9544 5.21793 25.9544 5.28561V6.81961C25.9805 7.07551 26.0037 7.32859 26.0249 7.57815C26.0453 7.82841 26.0482 8.08149 26.0334 8.33668C26.0334 8.5383 26.0397 8.7364 26.0531 8.93167C26.0679 9.12765 26.0686 9.32645 26.0559 9.52948C26.0404 9.74379 26.0369 9.96303 26.0446 10.1865C26.0517 10.4086 26.0559 10.6278 26.0559 10.8435C26.0559 11.6239 26.0348 12.3987 25.9939 13.1671C25.9805 13.3292 25.9833 13.4907 26.0023 13.6521C26.0228 13.8142 26.0334 13.982 26.0334 14.1568C26.02 14.5876 26.02 15.0254 26.0334 15.4709C26.0482 15.6852 26.0559 15.8939 26.0559 16.0969C26.0559 16.2985 26.0623 16.5072 26.0757 16.7229C26.1017 16.8717 26.1109 17.0267 26.1039 17.1882C26.0982 17.3503 26.0954 17.5054 26.0954 17.6535C26.0954 17.8022 26.0982 17.9608 26.1039 18.13C26.1109 18.2978 26.1151 18.4557 26.1151 18.6037C26.1412 18.792 26.094 18.933 25.9741 19.0267H25.2466C24.7482 19.014 24.2491 19.031 23.7493 19.0775C23.2509 19.1247 22.7461 19.1409 22.235 19.1282C22.0052 19.1155 21.7726 19.1022 21.5357 19.0888C21.3002 19.074 21.069 19.0874 20.842 19.1282C20.787 19.1409 20.7391 19.1346 20.6982 19.1085C20.6587 19.0803 20.6052 19.0599 20.5375 19.0465C20.498 18.9393 20.4811 18.718 20.4867 18.381C20.4938 18.0447 20.5043 17.7479 20.5177 17.4899C20.5177 17.086 20.5206 16.6855 20.5262 16.2887C20.5332 15.8925 20.5502 15.492 20.577 15.0874C20.6052 14.7772 20.615 14.4607 20.608 14.1371C20.6023 13.8142 20.5918 13.5041 20.577 13.2066C20.5636 12.7349 20.577 12.264 20.6164 11.7938C20.6573 11.3222 20.6517 10.8435 20.5995 10.3585C20.5036 10.4791 20.4148 10.5968 20.3344 10.711C20.2534 10.8259 20.1801 10.9436 20.1145 11.0635C19.817 11.6296 19.5237 12.1956 19.2347 12.761C18.945 13.3271 18.6517 13.9002 18.3549 14.4811C18.2196 14.737 18.0877 15.0028 17.9601 15.2791C17.8318 15.5555 17.7148 15.8347 17.6077 16.1166C17.5266 16.3197 17.3849 16.4007 17.1819 16.3591C16.8188 16.2788 16.4487 16.252 16.0708 16.2802C15.693 16.307 15.3158 16.3331 14.9401 16.3591C14.8456 16.3725 14.7547 16.3789 14.6666 16.3789C14.5777 16.3789 14.4868 16.3789 14.393 16.3789C14.3254 16.3789 14.2584 16.3324 14.1928 16.2379C14.0836 16.0504 13.9679 15.8685 13.846 15.6937C13.7254 15.5174 13.6119 15.3412 13.5048 15.1664C13.2884 14.8435 13.079 14.5136 12.876 14.1766C12.6743 13.8403 12.4734 13.5104 12.2725 13.1868C12.1372 12.9577 12.0053 12.7356 11.8777 12.5213C11.7494 12.3056 11.6049 12.0892 11.4435 11.8728C11.3363 11.7247 11.2278 11.5668 11.1192 11.399C11.012 11.2298 10.9049 11.0649 10.7977 10.9027C10.73 10.7956 10.6652 10.6849 10.6032 10.57C10.5425 10.4558 10.4593 10.3303 10.3522 10.195C10.3783 10.398 10.3874 10.5869 10.3804 10.7618C10.3747 10.9366 10.3846 11.1185 10.4114 11.306C10.4396 11.3871 10.4431 11.4752 10.4227 11.571C10.4015 11.6655 10.3917 11.7593 10.3917 11.853C10.4044 12.0547 10.4149 12.2563 10.4227 12.4593C10.4297 12.6609 10.434 12.8625 10.434 13.0656C10.46 13.6056 10.46 14.1308 10.434 14.6419C10.4185 15.0592 10.4149 15.4737 10.4227 15.8854C10.4297 16.2957 10.4403 16.7025 10.4537 17.1064C10.4664 17.3362 10.4664 17.5653 10.4537 17.7945C10.4403 18.0243 10.4403 18.2597 10.4537 18.5022C10.4537 18.5417 10.46 18.6362 10.4734 18.7842C10.4861 18.933 10.4396 19.014 10.3324 19.0267C10.0899 19.0401 9.7995 19.0373 9.46112 19.0183C9.12415 18.9978 8.83511 19.014 8.5926 19.0662C8.44597 19.1078 8.37266 19.0479 8.37266 18.8857C8.39874 18.6982 8.40508 18.4994 8.39239 18.2907C8.379 18.0807 8.379 17.8748 8.39239 17.6732C8.40508 17.4575 8.41495 17.2382 8.42059 17.0162C8.42764 16.7948 8.42482 16.5756 8.41213 16.3591L8.43187 14.0356C8.41848 13.7388 8.41213 13.4427 8.41213 13.1473C8.41213 12.8506 8.41213 12.5538 8.41213 12.2563V10.3162C8.41213 10.0476 8.40508 9.78891 8.39239 9.54076C8.379 9.2912 8.379 9.03742 8.39239 8.7794C8.41848 8.51081 8.41777 8.24856 8.38958 7.99266C8.36279 7.73747 8.35715 7.48157 8.37266 7.22567C8.37266 7.03603 8.36843 6.8471 8.36138 6.65888C8.35362 6.47136 8.34305 6.28877 8.33036 6.11183C8.31696 5.99198 8.31696 5.87425 8.33036 5.75934C8.34305 5.64514 8.34305 5.54081 8.33036 5.44634C8.31696 5.35258 8.32049 5.26869 8.34164 5.19538C8.36208 5.12065 8.38535 5.0424 8.41213 4.96133C8.80268 4.98812 9.17349 4.99799 9.52315 4.99235C9.87281 4.9853 10.2366 4.97472 10.6144 4.96133C10.9641 4.96133 11.3201 4.96556 11.6832 4.97261C12.0476 4.97825 12.4057 4.97472 12.7575 4.96133C12.8252 4.96133 12.8992 4.95851 12.9803 4.95287C13.0607 4.94582 13.134 4.94159 13.2002 4.94159C13.3356 4.94159 13.416 4.96838 13.4427 5.02055C13.6042 5.44 13.7995 5.84817 14.0293 6.24436C14.2584 6.64125 14.4748 7.04167 14.6778 7.44561C14.8527 7.78399 15.0472 8.1111 15.2615 8.42692C15.4773 8.74274 15.6796 9.06985 15.8678 9.40823C16.0835 9.79948 16.3028 10.1802 16.5248 10.5503C16.7483 10.9211 16.9943 11.2806 17.2636 11.6303C17.3179 11.5365 17.3715 11.4491 17.4244 11.368C17.4786 11.2877 17.5188 11.2002 17.5456 11.1058C17.6133 10.8767 17.7071 10.6546 17.8276 10.4403C17.9496 10.2246 18.0574 10.0081 18.1519 9.79173C18.2604 9.56261 18.3817 9.33703 18.5156 9.11496C18.651 8.89149 18.7723 8.67225 18.8794 8.45794C19.069 8.10687 19.2615 7.74945 19.4575 7.3864C19.6527 7.02193 19.8445 6.65817 20.0327 6.29512C20.1265 6.12029 20.2104 5.94545 20.2837 5.77062C20.3584 5.59438 20.4367 5.41814 20.5177 5.24331C20.5572 5.16295 20.6037 5.10232 20.6587 5.06284C20.713 5.02196 20.7941 5.00786 20.9012 5.02055C21.1846 5.02055 21.4638 5.0283 21.7387 5.0431C22.0151 5.0565 22.2949 5.06284 22.579 5.06284C22.7405 5.06284 22.9047 5.06002 23.0725 5.05438C23.2417 5.04733 23.4067 5.03605 23.5688 5.02055C24.2569 4.98107 24.9435 4.96133 25.6301 4.96133C25.671 4.94864 25.7182 4.94159 25.7711 4.94159C25.8254 4.94159 25.8656 4.94159 25.8924 4.94159Z" fill="white"/>
<path d="M37.1494 4.82037C37.1889 4.82037 37.2319 4.83094 37.2791 4.85139C37.3277 4.87042 37.3588 4.88664 37.3721 4.89932C38.3683 7.20455 39.284 9.53233 40.1187 11.8841C40.9548 14.2344 41.8585 16.5552 42.8285 18.8463C42.7609 18.9802 42.672 19.0373 42.5635 19.0183C42.4563 18.9979 42.3555 19.0007 42.2618 19.0268C41.9643 19.0817 41.671 19.0987 41.382 19.0775C41.0922 19.0571 40.7997 19.0606 40.505 19.0888C39.5744 19.141 38.6446 19.1607 37.7162 19.148C37.6485 19.1346 37.5738 19.1452 37.4934 19.179C37.4123 19.2129 37.3242 19.2086 37.2283 19.1677C37.0817 18.7109 36.9167 18.2569 36.7349 17.8058C36.5523 17.3532 36.3803 16.8978 36.2188 16.441C35.3426 16.3606 34.4705 16.35 33.602 16.4099C32.7335 16.4706 31.8608 16.4741 30.9852 16.4212C30.8907 16.6771 30.7963 16.9232 30.7004 17.16C30.6059 17.3955 30.5058 17.6267 30.3987 17.8537C30.3042 18.0701 30.2238 18.2901 30.1562 18.5135C30.0885 18.7356 30.0011 18.9274 29.8939 19.0888C29.5443 19.074 29.2101 19.074 28.8929 19.0888C28.577 19.1022 28.264 19.1156 27.9539 19.1283C27.9123 19.0606 27.8848 18.9901 27.8721 18.9168C27.8587 18.8421 27.8728 18.7504 27.9144 18.6433C28.0215 18.3881 28.1322 18.1357 28.2471 17.8875C28.3613 17.638 28.4593 17.3842 28.5404 17.1262C28.6341 16.8576 28.7307 16.5819 28.8308 16.3C28.9323 16.0166 29.0508 15.7466 29.1861 15.4907C29.2799 15.3031 29.3567 15.1149 29.4174 14.9267C29.4794 14.7371 29.5506 14.5481 29.6317 14.3599C29.7931 13.9694 29.9545 13.5816 30.1167 13.1981C30.2781 12.8132 30.4466 12.4325 30.6214 12.0561C30.7018 11.8799 30.7688 11.6945 30.8216 11.5006C30.8759 11.3053 30.9436 11.1192 31.0247 10.9423C31.1332 10.6737 31.2249 10.3917 31.2982 10.0963C31.3715 9.79951 31.4758 9.52317 31.6112 9.26727C31.7987 8.9028 31.9531 8.52847 32.0737 8.14497C32.1956 7.76006 32.3373 7.37938 32.4995 7.00293C32.6475 6.65186 32.7821 6.29797 32.9027 5.94267C33.0246 5.58596 33.1663 5.22502 33.3285 4.85985C33.437 4.84716 33.5456 4.83376 33.6528 4.82037C33.7599 4.80768 33.8678 4.80768 33.9771 4.82037C34.2322 4.84716 34.4818 4.85985 34.7243 4.85985C34.9668 4.85985 35.2157 4.85985 35.4716 4.85985C35.7402 4.85985 36.0158 4.8535 36.2978 4.84011C36.5812 4.82742 36.8653 4.82037 37.1494 4.82037ZM33.712 9.36596C33.3228 10.1894 32.9859 11.0325 32.7025 11.8954C32.4205 12.7568 32.1033 13.6042 31.7522 14.4389C32.3726 14.4805 32.9915 14.4882 33.6105 14.4614C34.2308 14.4332 34.8575 14.4128 35.4913 14.3994C35.1811 13.5647 34.8836 12.7237 34.6002 11.8756C34.3183 11.0261 34.0222 10.1894 33.712 9.36596Z" fill="white"/>
<path d="M52.6272 4.67936C53.1404 4.71884 53.6522 4.7555 54.164 4.78934C54.6772 4.82318 55.1686 4.93456 55.6388 5.12208C55.8679 5.21654 56.0907 5.32088 56.3071 5.43508C56.5228 5.54999 56.7188 5.70226 56.8936 5.8919C57.0008 5.98636 57.1051 6.07378 57.2066 6.15414C57.3081 6.23521 57.4054 6.32897 57.4999 6.43613C57.6071 6.53059 57.6945 6.63493 57.7621 6.74913C57.8298 6.86404 57.8897 6.98247 57.9426 7.10443C58.1189 7.41321 58.2443 7.69237 58.3177 7.94193C58.391 8.19219 58.4276 8.45796 58.4276 8.73994C58.1851 8.72725 57.8785 8.72725 57.5084 8.73994C57.1375 8.75334 56.8076 8.76391 56.5186 8.77096C56.2289 8.7766 56.0843 8.76673 56.0843 8.73994C56.0033 8.47135 55.9053 8.22603 55.7911 8.00396C55.6762 7.78049 55.5246 7.58099 55.3371 7.40616C55.1622 7.21864 54.9627 7.08751 54.7393 7.0142C54.5172 6.93947 54.2853 6.87461 54.0428 6.81963C53.5444 6.71247 53.0932 6.74631 52.6892 6.92114C52.4594 7.01561 52.2367 7.12629 52.0209 7.25388C51.8066 7.38219 51.6121 7.5408 51.4372 7.73044C51.1947 7.98634 50.972 8.25211 50.7689 8.52845C50.5673 8.8048 50.4122 9.1178 50.3036 9.46746C50.236 9.68389 50.1852 9.89608 50.1514 10.1047C50.1189 10.3134 50.0823 10.5263 50.0414 10.742C49.9864 11.0374 49.9632 11.3272 49.9709 11.6105C49.978 11.8925 49.9885 12.1823 50.0019 12.4791C50.028 12.7632 50.0541 13.0536 50.0809 13.3504C50.1091 13.6458 50.1697 13.9341 50.2642 14.2161C50.2769 14.2577 50.3241 14.3994 50.4052 14.6419C50.4855 14.8844 50.6068 15.1466 50.7689 15.4286C50.8627 15.6056 50.9607 15.755 51.0622 15.877C51.1637 15.9975 51.261 16.1181 51.3555 16.2379C51.4626 16.3733 51.5733 16.4882 51.6882 16.5819C51.8024 16.6764 51.9279 16.7702 52.0632 16.8639C52.2381 16.9866 52.4192 17.0684 52.6075 17.1092C52.7971 17.1487 52.9797 17.1819 53.1545 17.2079C53.342 17.2213 53.5366 17.2108 53.7382 17.1769C53.9413 17.1431 54.1302 17.0937 54.305 17.0275V13.8749H52.8697C52.8168 13.8749 52.7865 13.8312 52.7795 13.7424C52.7738 13.6542 52.7569 13.5901 52.7287 13.5506C52.783 13.2672 52.7964 13.0205 52.7682 12.8118C52.7414 12.6031 52.7428 12.3515 52.771 12.0561C52.9176 12.0279 53.0481 12.0138 53.163 12.0138C53.2772 12.0138 53.3956 12.0138 53.5183 12.0138C53.7869 12.0272 54.0625 12.0307 54.3445 12.0251C54.6279 12.018 54.9056 12.0279 55.1763 12.0561C55.4188 12.0829 55.6642 12.0723 55.9123 12.0251C56.1619 11.9785 56.4086 11.968 56.6511 11.994C56.826 12.0074 56.9937 12.011 57.1559 12.0053C57.3173 11.9983 57.4787 11.9877 57.6409 11.9743C57.8961 11.9482 58.1456 11.9419 58.3881 11.9546C58.6307 11.968 58.8795 11.9616 59.1354 11.9348C59.1763 11.9482 59.1974 11.9757 59.1974 12.0166C59.1974 12.0561 59.1974 12.0956 59.1974 12.135C59.1974 12.5129 59.2003 12.8844 59.2059 13.2489C59.213 13.6119 59.2101 13.982 59.1974 14.3599C59.1974 14.6158 59.2172 14.878 59.2567 15.1466C59.2975 15.4159 59.3116 15.6852 59.299 15.9559C59.2834 16.3324 59.2827 16.706 59.2961 17.0782C59.3109 17.449 59.3046 17.822 59.2764 18.1977C59.263 18.2788 59.2595 18.3598 59.2651 18.4402C59.2722 18.5213 59.2834 18.5953 59.299 18.663C59.299 18.7574 59.299 18.8688 59.299 18.9985C59.299 19.1268 59.2715 19.203 59.2172 19.2298C58.9874 19.1748 58.7308 19.1607 58.4474 19.1875C58.1654 19.2157 57.8961 19.2227 57.6409 19.21C57.5598 19.0204 57.4583 18.842 57.3363 18.6743C57.2158 18.5051 57.1023 18.3331 56.9951 18.1582C56.8859 18.185 56.7808 18.2287 56.6793 18.2908C56.5792 18.3514 56.4749 18.4078 56.3663 18.46C55.9617 18.6764 55.5443 18.8519 55.1143 18.9873C54.6836 19.1226 54.2387 19.2227 53.7805 19.289C53.483 19.3433 53.1757 19.3835 52.8584 19.4102C52.5426 19.4384 52.2303 19.425 51.9222 19.3708C51.8546 19.3574 51.7798 19.3602 51.6995 19.3792C51.6184 19.3997 51.5373 19.4102 51.457 19.4102C50.7294 19.3708 50.0019 19.2227 49.2744 18.9675C49.1391 18.9132 49.0009 18.8731 48.8599 18.8463C48.7189 18.8181 48.5737 18.7779 48.4256 18.725C48.2769 18.6707 48.1352 18.6031 47.9998 18.522C47.8659 18.4416 47.7249 18.3669 47.5769 18.2992C47.3738 18.2055 47.1941 18.0877 47.0383 17.9467C46.8839 17.8043 46.726 17.6725 46.5645 17.552C46.3629 17.4039 46.1951 17.2354 46.0598 17.0472C45.9258 16.8576 45.7848 16.675 45.6368 16.5002C45.3393 16.1244 45.0961 15.7148 44.9065 15.2707C44.7182 14.8252 44.5772 14.393 44.4835 13.9736C44.444 13.7593 44.4073 13.5013 44.3735 13.1981C44.3397 12.8936 44.3157 12.5904 44.303 12.2873C44.2896 11.9849 44.2896 11.7459 44.303 11.5711C44.3291 11.3004 44.3488 11.0409 44.3622 10.7928C44.3749 10.5432 44.4222 10.2902 44.5032 10.0343C44.5709 9.84673 44.6343 9.68882 44.695 9.56052C44.757 9.43081 44.831 9.27853 44.9177 9.1037C45.0059 8.92887 45.118 8.68002 45.2533 8.35644C45.3189 8.23449 45.4458 8.04908 45.634 7.80093C45.8236 7.55138 45.9653 7.35963 46.0598 7.22569C46.1141 7.14532 46.1782 7.07059 46.2515 7.00292C46.3263 6.93524 46.3982 6.87461 46.4658 6.81963C46.7605 6.59052 47.0566 6.36493 47.3541 6.14286C47.6509 5.92151 47.9745 5.74245 48.3241 5.60709C48.5793 5.49994 48.8387 5.39279 49.1024 5.28563C49.3653 5.17707 49.6248 5.0819 49.8807 5.00083C50.1359 4.92046 50.3946 4.85631 50.6561 4.80908C50.9191 4.76255 51.1863 4.74563 51.457 4.75832C51.6579 4.75832 51.856 4.73858 52.052 4.6991C52.2472 4.65822 52.439 4.65117 52.6272 4.67936Z" fill="white"/>
<path d="M67.1403 4.94157C67.2883 4.92888 67.3969 4.94932 67.4645 5.0036C67.5322 5.05648 67.559 5.16363 67.5463 5.32507C67.5181 5.60705 67.5181 5.89679 67.5463 6.19358C67.5724 6.57144 67.5717 6.95635 67.5435 7.3469C67.5167 7.73604 67.5111 8.12658 67.5266 8.51713C67.5393 8.73356 67.5386 8.9535 67.5238 9.17698C67.5104 9.39904 67.5111 9.62392 67.5266 9.85092C67.5393 10.2161 67.5421 10.5806 67.535 10.945C67.5294 11.3081 67.5266 11.6711 67.5266 12.0335C67.5111 12.4663 67.497 12.9013 67.4843 13.3391C67.4709 13.7776 67.4772 14.2118 67.504 14.6418C67.5322 14.9393 67.5421 15.2389 67.535 15.5414C67.5294 15.8445 67.5266 16.1505 67.5266 16.4606C67.5393 16.7842 67.5421 17.1113 67.535 17.4419C67.5294 17.7712 67.5266 18.1039 67.5266 18.4402C67.5266 18.4818 67.5294 18.5234 67.535 18.5642C67.5421 18.6037 67.5527 18.6432 67.566 18.6827C67.5921 18.7771 67.5816 18.8575 67.535 18.9252C67.4878 18.9929 67.4173 19.0267 67.3235 19.0267C66.9323 19.0267 66.5453 19.0479 66.1618 19.0887C65.7783 19.1282 65.3905 19.1543 65 19.1677C64.797 19.1825 64.5975 19.1797 64.4022 19.1592C64.2062 19.1381 64.0081 19.1219 63.8072 19.1085C63.5097 19.0958 63.2101 19.0852 62.9077 19.0775C62.6045 19.0704 62.2986 19.0937 61.9884 19.148C61.853 19.0676 61.7854 18.9266 61.7854 18.725C61.8136 18.4825 61.8368 18.24 61.8559 17.9975C61.8763 17.755 61.8735 17.5195 61.8474 17.2897C61.834 17.019 61.8199 16.7595 61.8051 16.5114C61.7917 16.2618 61.7917 16.0088 61.8051 15.7529C61.8199 15.2812 61.834 14.8131 61.8474 14.3486C61.8601 13.8847 61.8601 13.423 61.8474 12.964C61.834 12.7088 61.834 12.4529 61.8474 12.197C61.8601 11.9418 61.8671 11.6852 61.8671 11.4272C61.8671 11.1191 61.87 10.8068 61.8756 10.491C61.8826 10.1738 61.8798 9.85938 61.8671 9.5492C61.8671 9.32008 61.8735 9.08815 61.8869 8.85269C61.8996 8.61583 61.8932 8.38953 61.8671 8.17311C61.8537 8.01168 61.8368 7.85376 61.8164 7.69938C61.7952 7.5457 61.7854 7.38778 61.7854 7.22564C61.772 7.06421 61.772 6.90277 61.7854 6.74063C61.7981 6.57919 61.8051 6.41776 61.8051 6.25562C61.8051 6.13366 61.8009 5.97857 61.7938 5.79034C61.7882 5.60071 61.7811 5.4287 61.7741 5.27431C61.7684 5.12063 61.7656 5.04308 61.7656 5.04308C61.9687 5.01488 62.1667 5.00854 62.3606 5.02334C62.5559 5.03674 62.7483 5.02264 62.9387 4.98104C63.1001 4.94157 63.2616 4.9324 63.4237 4.95285C63.5851 4.97188 63.7466 4.98809 63.9087 5.00078C64.1773 5.01418 64.4395 5.01418 64.6954 5.00078C65.141 4.9747 65.5788 4.9747 66.0095 5.00078C66.3874 5.01418 66.7638 4.99444 67.1403 4.94157Z" fill="white"/>
<path d="M77.9332 4.71887C78.0403 4.71887 78.151 4.7231 78.2659 4.73015C78.3801 4.73579 78.4922 4.74566 78.6015 4.75835C79.1542 4.77174 79.6928 4.81898 80.2173 4.89934C80.7432 4.98041 81.2493 5.14185 81.7343 5.38436C82.1101 5.5747 82.4731 5.78407 82.8228 6.01318C83.1739 6.24088 83.4777 6.53062 83.7336 6.88169C83.7879 6.96277 83.8387 7.04102 83.8859 7.11574C83.9324 7.18906 83.9691 7.27295 83.9959 7.36671C84.0635 7.52885 84.1312 7.68747 84.1989 7.84326C84.2666 7.99765 84.3131 8.16896 84.3399 8.35647C84.3526 8.41146 84.3765 8.49606 84.4104 8.61026C84.4442 8.72305 84.4414 8.79355 84.4019 8.82175C84.3737 8.83514 84.3089 8.83867 84.2074 8.83303C84.1072 8.82598 84.017 8.82175 83.9366 8.82175C83.7202 8.83514 83.5278 8.83162 83.3586 8.81047C83.1908 8.79003 82.999 8.77945 82.7833 8.77945C82.7565 8.77945 82.703 8.77945 82.6226 8.77945C82.5415 8.77945 82.4802 8.78721 82.4393 8.80201C82.225 8.8154 82.0904 8.80201 82.0361 8.76253C81.9811 8.72165 81.9134 8.59898 81.833 8.39595C81.5771 7.7629 81.1062 7.3519 80.4203 7.16368C80.2039 7.096 79.9945 7.03608 79.7915 6.98321C79.5899 6.92893 79.3748 6.90143 79.1457 6.90143C78.9441 6.90143 78.7693 6.91835 78.6212 6.95219C78.4725 6.98603 78.3174 7.02974 78.156 7.0819C77.9938 7.13689 77.8387 7.20175 77.6907 7.27647C77.5419 7.34979 77.3932 7.43368 77.2452 7.52744C77.083 7.6219 76.9519 7.74316 76.8504 7.8912C76.7503 8.03995 76.6396 8.18164 76.5176 8.317C76.2223 8.65397 75.9797 9.03747 75.7901 9.46749C75.683 9.75159 75.5821 10.0554 75.4884 10.3783C75.3939 10.7019 75.3262 11.0184 75.2854 11.3286C75.2459 11.9208 75.2353 12.379 75.2543 12.7019C75.2748 13.0254 75.3051 13.2715 75.3446 13.4407C75.3855 13.6084 75.4207 13.7593 75.4489 13.8947C75.5427 14.3388 75.6801 14.7124 75.8606 15.017C76.0425 15.3201 76.2554 15.626 76.4979 15.9362C76.5522 16.0025 76.6135 16.0624 76.6812 16.1167C76.7489 16.1717 76.8151 16.2182 76.8814 16.2577C77.1105 16.393 77.3333 16.5185 77.5497 16.6327C77.7654 16.7476 78.0016 16.8386 78.2575 16.9063C78.4718 16.9591 78.6833 16.9958 78.8919 17.0162C79.102 17.0374 79.3149 17.0606 79.5292 17.0867C79.7449 17.1135 79.9811 17.0938 80.237 17.0275C80.6015 16.9471 80.9652 16.8463 81.3283 16.7258C81.6928 16.6038 82.0431 16.4544 82.3801 16.2774C82.5676 16.1837 82.7453 16.0765 82.913 15.956C83.0822 15.834 83.2472 15.7064 83.4093 15.5725C83.5447 15.5048 83.6525 15.478 83.7336 15.4907C83.8013 15.5718 83.8647 15.6592 83.9254 15.7529C83.9853 15.8474 84.0494 15.9412 84.1171 16.0349C84.2257 16.1442 84.3237 16.2626 84.4104 16.3902C84.4985 16.5185 84.5894 16.6426 84.6839 16.7624C84.8996 17.0726 84.8531 17.3151 84.5429 17.49C84.3681 17.5858 84.1918 17.6916 84.0156 17.8058C83.8408 17.9186 83.6589 18.0229 83.4714 18.1188C83.1344 18.2809 82.7876 18.4388 82.4309 18.5925C82.0734 18.7469 81.7125 18.8851 81.348 19.007C80.985 19.129 80.6184 19.2199 80.2483 19.2806C79.8775 19.3405 79.4968 19.3912 79.1063 19.4328C78.8222 19.4455 78.5381 19.442 78.2547 19.4216C77.9727 19.4004 77.6907 19.3905 77.4087 19.3905C77.0308 19.4032 76.6565 19.3764 76.2864 19.3088C75.9156 19.2425 75.5561 19.1692 75.2064 19.0888C74.787 18.9802 74.3816 18.8421 73.991 18.6743C73.6019 18.5051 73.2114 18.3126 72.8208 18.0962C72.6721 18.0159 72.5275 17.9214 72.3866 17.8142C72.2456 17.7071 72.1003 17.607 71.9523 17.5125C71.8169 17.4322 71.6478 17.2637 71.4447 17.0078C71.2431 16.7505 71.0514 16.4678 70.8695 16.159C70.689 15.8488 70.5438 15.5859 70.4352 15.3694C70.4084 15.3152 70.3647 15.1939 70.3027 15.0057C70.2421 14.8182 70.1786 14.5989 70.1109 14.3486C70.0447 14.0991 69.9848 13.8629 69.9305 13.6409C69.8755 13.4195 69.8487 13.2616 69.8487 13.1671C69.8353 12.9923 69.8156 12.8245 69.7895 12.6624C69.7627 12.5009 69.75 12.3318 69.75 12.1548C69.75 11.9539 69.7528 11.753 69.7585 11.5514C69.7655 11.3483 69.7895 11.1453 69.829 10.9423C69.8572 10.7808 69.891 10.6194 69.9305 10.4573C69.9714 10.2958 69.9989 10.1344 70.0122 9.97225C70.0383 9.86509 70.0715 9.76499 70.1109 9.67052C70.1518 9.57676 70.1934 9.483 70.235 9.38854C70.3683 9.07836 70.5226 8.78932 70.6975 8.52003C70.8737 8.24932 71.0499 7.98637 71.2248 7.73047C71.3446 7.54083 71.4793 7.37235 71.628 7.22572C71.7761 7.07767 71.9185 6.92258 72.0538 6.76044C72.1194 6.66668 72.2061 6.58984 72.3132 6.52921C72.4218 6.46718 72.5233 6.40232 72.6178 6.33464C72.9956 6.09214 73.3862 5.8736 73.7908 5.67762C74.1948 5.48235 74.6121 5.32443 75.0429 5.20389C75.3262 5.11013 75.6132 5.02624 75.9029 4.95292C76.1919 4.87819 76.4852 4.83378 76.7827 4.82039C76.9702 4.8077 77.162 4.78796 77.3579 4.76117C77.5532 4.73297 77.745 4.71887 77.9332 4.71887Z" fill="white"/>
<path d="M20.3542 25.2499C20.5156 25.3176 20.6171 25.4262 20.6587 25.5742C20.5911 25.8435 20.5671 26.1128 20.5882 26.3835C20.6087 26.6528 20.6052 26.9214 20.577 27.19C20.5093 27.2845 20.4345 27.3183 20.3542 27.2915C20.2202 27.2506 20.0821 27.2295 19.9397 27.2295C19.7987 27.2295 19.6612 27.2295 19.528 27.2295C19.1233 27.2429 18.7194 27.2534 18.3154 27.2605C17.9108 27.2682 17.5132 27.2788 17.1226 27.2915C16.6503 27.3049 16.1752 27.3112 15.6958 27.3112C15.2178 27.3112 14.7434 27.3183 14.2718 27.331C14.2168 27.331 14.1562 27.3352 14.0885 27.3423C14.0222 27.3479 13.9426 27.3507 13.8488 27.3507C13.9144 28.0656 13.9341 28.7797 13.908 29.4938C13.8812 30.2086 13.8946 30.9291 13.9475 31.6566C14.8907 31.6566 15.8481 31.6503 16.8181 31.6369C17.7881 31.6242 18.7511 31.5833 19.7084 31.5156C19.8022 31.7976 19.8283 32.0535 19.7874 32.2826C19.7479 32.5125 19.7486 32.8085 19.7902 33.1709L19.7705 33.6362C19.7705 33.6911 19.7056 33.725 19.5759 33.7377C19.4476 33.7511 19.351 33.7574 19.2855 33.7574H17.6274C17.4244 33.7708 17.2185 33.7849 17.0098 33.7997C16.8012 33.8131 16.5883 33.8131 16.3726 33.7997C16.1167 33.7715 15.8608 33.7652 15.6056 33.78C15.3497 33.7934 15.0938 33.7927 14.8386 33.7772C14.6764 33.7645 14.515 33.7546 14.3536 33.749C14.1914 33.7419 14.0236 33.7715 13.8488 33.8392C13.8333 34.0817 13.8298 34.3284 13.8375 34.578C13.8446 34.8261 13.8488 35.0785 13.8488 35.3337C13.8488 35.8321 13.858 36.3312 13.877 36.831C13.8974 37.3295 13.8946 37.8342 13.8685 38.3453C13.8551 38.4525 13.8488 38.5674 13.8488 38.6893C13.8488 38.8099 13.841 38.9248 13.8262 39.0333C13.8262 39.1821 13.7959 39.2801 13.736 39.3266C13.6754 39.3738 13.571 39.4042 13.423 39.4168C13.2876 39.4295 13.1452 39.4295 12.9972 39.4168C12.8506 39.4042 12.7025 39.4042 12.5545 39.4168C12.2704 39.4429 11.9863 39.4493 11.7029 39.4366C11.4209 39.4232 11.1389 39.4105 10.8569 39.3971C10.4918 39.3844 10.1217 39.3844 9.74592 39.3971C9.34127 39.3971 9.00783 39.4105 8.74488 39.4366C8.48122 39.4648 8.35644 39.4176 8.36984 39.2956C8.38464 39.2152 8.39239 39.1003 8.39239 38.9516C8.39239 38.8035 8.39239 38.6886 8.39239 38.6076C8.39239 38.3784 8.40156 38.1465 8.42059 37.9111C8.44104 37.6763 8.44456 37.4507 8.43187 37.2343C8.40508 36.898 8.4079 36.5653 8.44033 36.2361C8.47417 35.9054 8.4777 35.5783 8.45161 35.2548C8.43822 34.9974 8.42764 34.7444 8.42059 34.4962C8.41495 34.2467 8.41213 33.9936 8.41213 33.7377C8.42482 33.5628 8.42764 33.3951 8.42059 33.2329C8.41495 33.0715 8.39803 32.903 8.36984 32.7282C8.35644 32.5801 8.35644 32.4222 8.36984 32.2544C8.38464 32.0852 8.39239 31.9266 8.39239 31.7779C8.37689 31.5093 8.36561 31.2365 8.35856 30.9601C8.35292 30.6838 8.3501 30.4103 8.3501 30.1396C8.3501 29.9252 8.3501 29.718 8.3501 29.5164C8.3501 29.3133 8.34305 29.104 8.33036 28.8875C8.31696 28.4025 8.32754 27.9175 8.36138 27.4325C8.39521 26.9475 8.38464 26.4695 8.33036 25.9972C8.31696 25.9034 8.31696 25.8132 8.33036 25.7265C8.34305 25.6384 8.35644 25.5474 8.36984 25.453C8.49179 25.3571 8.61939 25.3063 8.75334 25.3007C8.88869 25.2936 9.02404 25.2894 9.15939 25.2894C9.32083 25.2894 9.48227 25.3 9.64441 25.3204C9.80584 25.3416 9.96093 25.3451 10.1097 25.3317C10.3783 25.3035 10.6511 25.3035 10.9274 25.3317C11.2038 25.3585 11.4759 25.3648 11.7452 25.3515C11.8129 25.3515 11.8805 25.3451 11.9482 25.3317C12.0159 25.3169 12.0836 25.3169 12.1513 25.3317C12.3388 25.3451 12.5333 25.3585 12.735 25.3712C12.938 25.3846 13.1333 25.3846 13.3215 25.3712C13.4434 25.3585 13.6521 25.3486 13.9475 25.343C14.2443 25.3359 14.565 25.3317 14.9091 25.3317C15.2531 25.3317 15.5619 25.3317 15.8368 25.3317C16.1131 25.3317 16.2915 25.3247 16.3726 25.3092C16.5488 25.2831 16.725 25.2739 16.8999 25.281C17.0747 25.2866 17.2495 25.2894 17.4244 25.2894C17.6669 25.3028 17.9094 25.3169 18.1519 25.3317C18.3944 25.3451 18.6369 25.3374 18.8794 25.3092C19.1219 25.2831 19.3644 25.2739 19.6069 25.281C19.8494 25.2866 20.0983 25.2767 20.3542 25.2499Z" fill="white"/>
<path d="M31.0362 25.0272L32.1275 25.0892C32.3566 25.1026 32.5759 25.147 32.7845 25.2218C32.9932 25.2951 33.2047 25.3451 33.419 25.3712C33.6897 25.398 33.9357 25.472 34.1578 25.594C34.3792 25.7145 34.6118 25.8153 34.8543 25.8957C34.9481 25.9239 35.039 25.9789 35.1278 26.0593C35.216 26.1403 35.3069 26.2136 35.4014 26.2792C35.67 26.4562 35.9357 26.6486 36.1994 26.8573C36.4623 27.0659 36.7013 27.2915 36.9156 27.534C37.199 27.8294 37.4486 28.153 37.6629 28.5041C37.8786 28.8537 38.0407 29.2309 38.1479 29.6348C38.2283 29.9189 38.3093 30.203 38.3904 30.4864C38.4708 30.7684 38.5117 31.0779 38.5117 31.4141C38.5793 31.8731 38.5857 32.3412 38.5314 32.8184C38.4785 33.2964 38.3848 33.7708 38.2494 34.2425C38.1817 34.4984 38.1035 34.7578 38.0154 35.0207C37.9286 35.2844 37.8321 35.5368 37.7249 35.7793C37.4408 36.3587 37.0968 36.9037 36.6929 37.4148C36.4651 37.7123 36.1994 37.9689 35.8948 38.1846C35.5917 38.3989 35.2787 38.6012 34.9558 38.7909C34.781 38.898 34.5921 38.9925 34.389 39.0728C34.1874 39.1539 33.9858 39.235 33.7828 39.3154C33.5269 39.4098 33.271 39.4662 33.0158 39.4874C32.7599 39.5078 32.504 39.5381 32.2488 39.5776C31.9647 39.6319 31.7447 39.6657 31.5889 39.6791C31.4345 39.6918 31.2231 39.6989 30.9545 39.6989C30.7923 39.6989 30.6309 39.6989 30.4694 39.6989C30.3073 39.6989 30.1459 39.6918 29.9844 39.6791C29.7151 39.6396 29.4388 39.6093 29.1554 39.5889C28.8734 39.5677 28.5971 39.5311 28.3264 39.4789C28.0705 39.4112 27.8047 39.3577 27.5283 39.3182C27.252 39.2773 26.9926 39.1885 26.7501 39.0531C26.5358 38.946 26.32 38.8585 26.1043 38.7909C25.8879 38.7232 25.6856 38.6217 25.4981 38.4863C25.295 38.3249 25.0589 38.1634 24.7903 38.0013C24.5478 37.8533 24.3518 37.6714 24.2038 37.4571C24.055 37.2414 23.8865 37.039 23.699 36.8508C23.5784 36.7422 23.4706 36.6139 23.3747 36.4673C23.2803 36.3193 23.1865 36.1769 23.0927 36.0415C22.9983 35.8801 22.8939 35.6545 22.7797 35.3648C22.6648 35.0757 22.5605 34.7796 22.4667 34.4765C22.3723 34.172 22.2982 33.9323 22.244 33.7574C22.2172 33.6503 22.1967 33.4726 22.1819 33.2245C22.1685 32.9749 22.1685 32.6986 22.1819 32.3955C22.1967 32.0909 22.2136 31.811 22.2327 31.5551C22.2531 31.2999 22.2778 31.111 22.306 30.9884C22.4131 30.626 22.5302 30.2721 22.6585 29.9281C22.7861 29.5841 22.944 29.2443 23.1322 28.9073C23.2803 28.6782 23.429 28.4498 23.5777 28.2221C23.7258 27.993 23.8879 27.7765 24.0628 27.5735C24.3053 27.2633 24.5739 26.9806 24.8692 26.7247C25.166 26.4695 25.5037 26.2672 25.8816 26.1185C26.1917 26.0113 26.4441 25.9112 26.6401 25.8168C26.8354 25.7209 27.0885 25.6264 27.3986 25.5319C27.5185 25.4925 27.6834 25.4431 27.8921 25.3825C28.1008 25.3205 28.2925 25.2697 28.4674 25.2302C28.657 25.1759 28.8523 25.1358 29.0539 25.109C29.2569 25.0808 29.4522 25.0603 29.6404 25.0469C29.8695 25.0208 30.1015 25.0046 30.3369 24.999C30.5738 24.9919 30.8064 25.0011 31.0362 25.0272ZM30.2467 27.1082C30.0451 27.1632 29.847 27.2647 29.6517 27.4128C29.4557 27.5615 29.3034 27.723 29.1949 27.8978C29.0609 28.0994 28.9566 28.3144 28.8819 28.5435C28.8086 28.7734 28.731 29.0025 28.6506 29.2316C28.5153 29.6757 28.4201 30.11 28.3658 30.5344C28.313 30.9594 28.2594 31.4078 28.2051 31.8794C28.1783 32.0937 28.1783 32.3264 28.2051 32.5759C28.2333 32.8262 28.2538 33.0652 28.2671 33.2922C28.2798 33.4275 28.2897 33.5699 28.2953 33.718C28.3024 33.8667 28.3193 34.0077 28.3461 34.1409C28.4265 34.5456 28.5139 34.9467 28.6084 35.345C28.7042 35.7419 28.8593 36.1226 29.0736 36.4871C29.2217 36.7296 29.3838 36.9488 29.5586 37.1441C29.7349 37.3401 29.9647 37.4846 30.2467 37.5783C30.4081 37.6312 30.566 37.6615 30.7204 37.6686C30.8762 37.6763 31.0221 37.6319 31.1575 37.536C31.5614 37.2808 31.83 36.9375 31.964 36.5068C32.0725 36.1162 32.1677 35.725 32.2488 35.3337C32.3291 34.9432 32.3898 34.5456 32.4292 34.1409C32.4701 33.737 32.4913 33.3366 32.4913 32.9397C32.4913 32.5435 32.4913 32.1431 32.4913 31.7384C32.4913 31.5904 32.4913 31.4416 32.4913 31.2929C32.4913 31.1449 32.4772 31.0024 32.449 30.8671C32.3827 30.478 32.3531 30.1114 32.3587 29.7674C32.3658 29.4233 32.289 29.0765 32.1275 28.7268C32.0464 28.4561 31.9583 28.2136 31.8625 27.9993C31.768 27.7836 31.6481 27.5735 31.5015 27.3705C31.4056 27.2506 31.209 27.1639 30.9122 27.1111C30.6168 27.0568 30.3947 27.0561 30.2467 27.1082Z" fill="white"/>
<path d="M45.9439 25.2696C45.9961 25.2569 46.0525 25.2739 46.1131 25.3204C46.1751 25.3676 46.24 25.4184 46.3077 25.4727C46.2266 27.4261 46.1864 29.3831 46.1864 31.3436C46.1864 33.3048 46.2527 35.2681 46.3866 37.2342H47.7204C47.9361 37.2342 48.149 37.2314 48.3577 37.2258C48.5664 37.2187 48.7786 37.2081 48.995 37.1948C49.3312 37.1666 49.6612 37.1666 49.9847 37.1948C50.2139 37.2081 50.4394 37.1948 50.6615 37.1553C50.8829 37.1144 51.1021 37.1066 51.3185 37.1327C51.4405 37.1461 51.5653 37.1496 51.6936 37.144C51.8212 37.1369 51.9452 37.1264 52.0658 37.113C52.2138 37.0869 52.3153 37.1341 52.3703 37.254L52.3506 38.083C52.3224 38.3128 52.3252 38.5314 52.3591 38.74C52.3929 38.9487 52.3287 39.1341 52.1673 39.2955C52.032 39.3632 51.8966 39.3844 51.7612 39.3576C51.6273 39.3294 51.4863 39.3223 51.3383 39.335C51.0013 39.3484 50.6545 39.3484 50.2977 39.335C49.9403 39.3223 49.5871 39.3287 49.2375 39.3548C48.7391 39.3703 48.2435 39.3738 47.7514 39.366C47.2587 39.359 46.7631 39.3689 46.2654 39.3971C45.7804 39.4104 45.2953 39.414 44.8103 39.4083C44.3253 39.4013 43.8403 39.4104 43.3553 39.4365C42.9788 39.4647 42.5918 39.4746 42.1935 39.4676C41.7966 39.4598 41.4025 39.4563 41.012 39.4563C40.8766 39.2948 40.809 39.12 40.809 38.9318C40.809 38.5018 40.8153 38.0675 40.8287 37.629C40.8435 37.1912 40.8301 36.7633 40.7892 36.346C40.7624 36.0231 40.7589 35.6995 40.7779 35.376C40.7984 35.0531 40.7892 34.7295 40.7497 34.4059C40.7363 34.1091 40.73 33.8131 40.73 33.5177C40.73 33.2209 40.7223 32.9241 40.7074 32.6266C40.7074 32.155 40.7244 31.6869 40.7582 31.2223C40.792 30.7585 40.7892 30.2967 40.7497 29.8378C40.7215 29.5671 40.7032 29.2978 40.6962 29.0285C40.6905 28.7599 40.6807 28.4976 40.668 28.2417C40.668 28.0803 40.6849 27.9224 40.7187 27.768C40.7526 27.6122 40.7624 27.4599 40.7497 27.3112C40.7497 27.1364 40.7392 26.908 40.7187 26.626C40.6976 26.3426 40.6877 26.0789 40.6877 25.8364C40.6877 25.5939 40.7145 25.4522 40.7695 25.4106C40.8766 25.3711 40.9873 25.3556 41.1022 25.3627C41.2164 25.3683 41.3278 25.3711 41.435 25.3711C41.7318 25.3979 42.0215 25.4015 42.3035 25.3824C42.5869 25.362 42.871 25.3584 43.1551 25.3711C43.4631 25.3711 43.7754 25.3613 44.0913 25.3401C44.4085 25.3197 44.7159 25.2964 45.0134 25.2696C45.1614 25.2435 45.313 25.2435 45.4673 25.2696C45.6231 25.2964 45.7818 25.2964 45.9439 25.2696Z" fill="white"/>
<path d="M57.3696 25.2499C57.4915 25.2633 57.7474 25.2739 58.1366 25.2809C58.5271 25.2866 58.955 25.2894 59.4196 25.2894C59.8856 25.2894 60.3142 25.2894 60.7055 25.2894C61.096 25.2894 61.3582 25.283 61.4922 25.2696C61.6536 25.257 61.8623 25.257 62.1182 25.2696C62.3755 25.283 62.6349 25.2936 62.8965 25.3007C63.1594 25.3063 63.3716 25.3028 63.5338 25.2894C63.7368 25.2767 63.9553 25.2971 64.1908 25.3514C64.4277 25.4043 64.6462 25.4445 64.8478 25.4727C65.1446 25.4861 65.4273 25.5432 65.6966 25.6447C65.9652 25.7448 66.2281 25.8491 66.4861 25.9577C66.8619 26.1198 67.1982 26.3412 67.4956 26.6232C67.6437 26.7458 67.7988 26.8572 67.9609 26.9587C68.1224 27.0588 68.2633 27.1829 68.3839 27.331C68.5059 27.4663 68.6208 27.6122 68.7279 27.768C68.8351 27.9224 68.9366 28.0803 69.0325 28.2418C69.1791 28.4695 69.2989 28.7148 69.3934 28.9777C69.4893 29.2414 69.5908 29.5008 69.6979 29.756C69.7106 29.7976 69.724 29.8392 69.7374 29.8801C69.7522 29.9196 69.76 29.9591 69.76 29.9985C69.76 30.1339 69.7896 30.3503 69.8502 30.6471C69.9101 30.9425 69.9405 31.2252 69.9405 31.4959C69.9405 31.8589 69.9235 32.2086 69.8897 32.5449C69.8559 32.8818 69.8255 33.2385 69.7995 33.6164C69.7861 34.0619 69.7219 34.4934 69.6077 34.9107C69.4928 35.328 69.3483 35.739 69.1735 36.143C68.9027 36.7901 68.5115 37.3492 68.0004 37.8208C67.8256 37.9829 67.643 38.1415 67.4533 38.2973C67.2651 38.4517 67.0642 38.5821 66.8499 38.6893C66.6201 38.8098 66.3874 38.9142 66.1506 39.0023C65.9151 39.0911 65.6698 39.1482 65.4146 39.1743C65.1982 39.1877 64.9818 39.2215 64.766 39.2758C64.5517 39.3287 64.336 39.3548 64.1203 39.3548C63.729 39.3421 63.3378 39.352 62.9472 39.3858C62.556 39.4196 62.1661 39.4295 61.777 39.4168C61.1827 39.4041 60.5821 39.3872 59.9751 39.3661C59.3696 39.3456 58.771 39.3491 58.1789 39.3773C57.8292 39.3907 57.4824 39.3844 57.1383 39.3576C56.7943 39.3294 56.4475 39.3287 56.0978 39.3548C55.8003 39.3703 55.5071 39.3773 55.218 39.3773C54.9283 39.3773 54.6414 39.3907 54.358 39.4168C54.2769 39.242 54.2403 39.101 54.248 38.9938C54.2551 38.8853 54.2656 38.7704 54.279 38.6498C54.3051 38.4207 54.3143 38.1979 54.3072 37.9815C54.3016 37.7658 54.2988 37.5501 54.2988 37.3358V35.8384L54.2367 34.7077C54.2233 34.5068 54.2128 34.3087 54.2057 34.1127C54.2001 33.9174 54.2036 33.725 54.217 33.5346C54.2452 33.266 54.2551 32.9932 54.248 32.7169C54.2403 32.4405 54.2367 32.1684 54.2367 31.8991C54.2233 31.4536 54.2233 31.0024 54.2367 30.5456C54.2515 30.3426 54.2593 30.1367 54.2593 29.928C54.2593 29.7194 54.2593 29.5135 54.2593 29.3105V27.3704C54.2593 27.0758 54.2487 26.817 54.2283 26.595C54.2071 26.3715 54.2036 26.1121 54.217 25.8167C54.217 25.7624 54.217 25.6778 54.217 25.5629C54.217 25.4487 54.2311 25.3641 54.2593 25.3091C54.4468 25.257 54.6315 25.2344 54.812 25.2414C54.9939 25.2471 55.1736 25.257 55.3506 25.2696C55.7002 25.283 56.0393 25.2767 56.3685 25.2499C56.6992 25.2238 57.0326 25.2238 57.3696 25.2499ZM61.2694 27.2717C61.0946 27.2717 60.9226 27.276 60.7534 27.283C60.5856 27.2887 60.415 27.2851 60.2402 27.2717C60.1591 27.2717 60.078 27.2788 59.9977 27.2915C59.9166 27.3049 59.8355 27.3246 59.7552 27.3507C59.7946 27.6482 59.7975 27.9344 59.7636 28.2107C59.7312 28.4871 59.722 28.7663 59.7354 29.0482C59.7481 29.2781 59.7509 29.5347 59.7439 29.8181C59.7382 30.1 59.7312 30.3623 59.7241 30.6048C59.7185 30.8473 59.722 31.0158 59.7354 31.1096C59.7481 31.1772 59.7552 31.3492 59.7552 31.6256C59.7552 31.9019 59.7509 32.2192 59.7439 32.5759C59.7382 32.9333 59.7312 33.2738 59.7241 33.5967C59.7185 33.9202 59.7157 34.1627 59.7157 34.3242C59.7157 34.6611 59.7249 35.0052 59.7439 35.3562C59.7643 35.7059 59.7812 36.0556 59.7946 36.4052C59.8073 36.554 59.8038 36.7027 59.7834 36.8508C59.7643 36.9995 59.789 37.1468 59.8567 37.2935C60.071 37.2935 60.2994 37.2935 60.5419 37.2935C60.7844 37.2935 61.0135 37.2871 61.2299 37.2737C61.4725 37.2477 61.7044 37.2047 61.9264 37.144C62.1499 37.082 62.3692 36.9706 62.5835 36.8085C62.7731 36.6618 62.9345 36.5081 63.0685 36.346C63.2038 36.1846 63.318 36.002 63.4125 35.799C63.5739 35.4366 63.6917 35.0461 63.765 34.6287C63.8397 34.21 63.8841 33.8321 63.8975 33.4951C63.9102 33.1589 63.9102 32.9368 63.8975 32.8297C63.8841 32.559 63.8806 32.296 63.8862 32.0401C63.8933 31.7849 63.8905 31.529 63.8778 31.2731C63.8778 31.0574 63.8538 30.8184 63.8073 30.5569C63.7601 30.2939 63.703 30.0479 63.6353 29.8181C63.5803 29.5889 63.5168 29.3803 63.4435 29.1921C63.3702 29.0024 63.2786 28.8071 63.17 28.6055C62.9684 28.215 62.716 27.8977 62.4115 27.6552C62.1083 27.4127 61.7276 27.2851 61.2694 27.2717Z" fill="white"/>
<path d="M83.8399 25.2697C84.2854 25.2302 84.4871 25.4051 84.4462 25.7942C84.4194 25.9846 84.413 26.1707 84.4264 26.3525C84.4391 26.533 84.4532 26.7184 84.4687 26.9081C84.4814 26.9609 84.4807 27.011 84.4659 27.0575C84.4525 27.1047 84.4391 27.1555 84.4264 27.2098C83.2816 27.2232 82.1367 27.2168 80.9919 27.19C79.847 27.164 78.7007 27.2041 77.5545 27.3113C77.5827 27.9169 77.5799 28.5436 77.546 29.1921C77.5122 29.8393 77.5291 30.4716 77.5968 31.0899C77.8259 31.0638 78.0543 31.0673 78.282 31.1012C78.5111 31.135 78.7402 31.1378 78.97 31.1096C79.1315 31.0835 79.2929 31.0701 79.4551 31.0701C79.6165 31.0701 79.7779 31.0772 79.9401 31.0899C80.2897 31.0899 80.6429 31.0807 81.0003 31.0617C81.357 31.0412 81.7116 31.0243 82.0634 31.0109C82.2382 30.9961 82.4088 30.9856 82.5766 30.9799C82.7458 30.9729 82.9178 30.9757 83.0927 30.9884C83.4028 31.0166 83.5445 31.1717 83.5185 31.4536C83.5051 31.6835 83.5015 31.9098 83.5072 32.1332C83.5142 32.3553 83.5248 32.5802 83.5382 32.8072C83.5382 33.0497 83.4296 33.1709 83.2139 33.1709C83.0257 33.1709 82.8339 33.1752 82.6387 33.1822C82.4427 33.19 82.2509 33.1935 82.0634 33.1935C81.6982 33.1935 81.3373 33.2005 80.9806 33.2132C80.6232 33.2266 80.2629 33.24 79.9006 33.2527C79.7652 33.2661 79.6271 33.2724 79.4861 33.2724C79.3451 33.2724 79.1999 33.2724 79.0518 33.2724H77.5545C77.5016 33.9739 77.4953 34.6753 77.5347 35.3761C77.5756 36.0754 77.6095 36.7761 77.6363 37.4768C77.7166 37.5318 77.804 37.5523 77.8985 37.5389C77.9923 37.5241 78.0874 37.5234 78.1833 37.5361C78.3976 37.5516 78.6126 37.5628 78.829 37.5699C79.0448 37.5755 79.2534 37.572 79.4551 37.5586C79.7236 37.5304 79.9859 37.5163 80.2418 37.5163C80.4991 37.5163 80.7557 37.4966 81.0116 37.4571C81.1596 37.4289 81.3176 37.4226 81.4853 37.4374C81.6545 37.4508 81.8195 37.4508 81.9816 37.4374C82.3179 37.3965 82.6542 37.3753 82.9911 37.3753C83.3295 37.3753 83.6665 37.3753 84.0035 37.3753C84.2044 37.3753 84.4053 37.3521 84.6069 37.3048C84.8099 37.2583 85.0193 37.2879 85.2357 37.3951V38.9121C85.2618 39.2223 85.1272 39.3633 84.8325 39.3351C84.4941 39.3224 84.1564 39.3323 83.8202 39.3661C83.4832 39.4 83.1406 39.4105 82.7909 39.3972C82.3581 39.369 81.9231 39.3626 81.4853 39.3774C81.049 39.3908 80.6147 39.4042 80.1826 39.4169C79.6299 39.4296 79.0701 39.4366 78.5048 39.4366C77.9387 39.4366 77.3726 39.4366 76.8072 39.4366C76.7543 39.4366 76.6225 39.4395 76.4124 39.4451C76.2038 39.4521 75.9676 39.4627 75.7047 39.4761C75.4431 39.4909 75.1943 39.5015 74.9574 39.5071C74.7219 39.5142 74.5513 39.5184 74.4442 39.5184C74.1883 39.4916 73.9352 39.4712 73.6856 39.4564C73.4354 39.443 73.176 39.4366 72.9074 39.4366C72.8129 39.4366 72.6684 39.4465 72.4731 39.4677C72.2771 39.4881 72.1798 39.4775 72.1798 39.4366C72.2059 39.1546 72.2151 38.8691 72.208 38.5794C72.2024 38.2883 72.1862 38.0013 72.1601 37.7193C72.1185 37.3288 72.1185 36.9242 72.1601 36.5068C72.1862 36.3038 72.1954 36.0951 72.1883 35.8808C72.1827 35.6651 72.1798 35.4487 72.1798 35.2322C72.1798 35.0574 72.1827 34.8868 72.1883 34.719C72.1954 34.5498 72.1862 34.3778 72.1601 34.203C72.1467 33.9344 72.1298 33.6658 72.1094 33.3965C72.0882 33.1258 72.0783 32.8565 72.0783 32.5872C72.0783 32.3038 72.0741 32.0169 72.0671 31.7272C72.0614 31.4381 72.0586 31.1512 72.0586 30.8671C72.0713 30.5851 72.0812 30.3031 72.0868 30.0212C72.0938 29.7378 72.1051 29.4537 72.1206 29.1696C72.1467 28.2129 72.146 27.398 72.1178 26.7248C72.091 26.0522 72.0713 25.6476 72.0586 25.5122C72.0847 25.4861 72.1178 25.4664 72.1573 25.453C72.1982 25.4382 72.2264 25.4178 72.2419 25.391C72.3356 25.3649 72.4125 25.3557 72.4731 25.3628C72.533 25.3684 72.6099 25.3712 72.7043 25.3712C73.3374 25.3452 73.974 25.3423 74.6134 25.3628C75.2542 25.3818 75.8915 25.3783 76.5252 25.3515C76.7543 25.3388 76.9828 25.336 77.2105 25.343C77.4396 25.3487 77.6623 25.3452 77.8788 25.3318C78.2016 25.3036 78.528 25.3 78.8572 25.3205C79.1879 25.3416 79.515 25.3374 79.8386 25.3092C80.1487 25.2831 80.4653 25.2803 80.7888 25.3007C81.1117 25.3219 81.4353 25.3177 81.7589 25.2895C82.069 25.2634 82.3856 25.2542 82.7092 25.2613C83.032 25.2669 83.3556 25.2697 83.6792 25.2697H83.8399Z" fill="white"/>
<path d="M96.5941 25.2302C96.9565 25.2302 97.3202 25.2499 97.6854 25.2894C97.9406 25.3028 98.1796 25.3599 98.4016 25.4614C98.6251 25.5629 98.8444 25.6609 99.0587 25.7547C99.6917 26.0388 100.235 26.4103 100.686 26.8685C101.137 27.3253 101.437 27.9111 101.585 28.6253C101.692 29.1631 101.735 29.7053 101.715 30.2523C101.696 30.7979 101.572 31.326 101.343 31.8371C100.87 32.9424 100.063 33.6777 98.9177 34.0422C98.7161 34.1233 98.4947 34.1902 98.2522 34.2424C98.6413 34.6752 99.0206 35.1039 99.3914 35.5282C99.7636 35.9512 100.137 36.3714 100.514 36.7887C100.892 37.2061 101.272 37.6142 101.656 38.0125C102.039 38.4094 102.407 38.8162 102.758 39.2335C102.677 39.4105 102.556 39.4986 102.395 39.4986C101.922 39.5113 101.451 39.5183 100.979 39.5183C100.507 39.5183 100.035 39.4972 99.5634 39.4563C99.1743 39.4041 98.7802 39.3844 98.3819 39.3971C97.985 39.4105 97.5909 39.4041 97.2004 39.3773C97.1059 39.3625 97.0213 39.359 96.9466 39.3661C96.8733 39.3738 96.8091 39.3773 96.7548 39.3773C96.0005 38.5955 95.2899 37.7975 94.623 36.9833C93.9554 36.1676 93.2646 35.3619 92.5505 34.5667C92.4976 35.3619 92.4948 36.1571 92.542 36.9523C92.5885 37.7461 92.6125 38.5539 92.6125 39.3773H87.0743C87.0609 38.7838 87.0644 38.2008 87.0856 37.629C87.106 37.0559 87.123 36.4863 87.1364 35.9202V28.9693C87.123 28.3884 87.1194 27.8124 87.1251 27.2407C87.1321 26.6676 87.1364 26.1043 87.1364 25.5516C87.204 25.4579 87.2703 25.4015 87.3366 25.3824C87.4042 25.362 87.4783 25.3514 87.5593 25.3514C87.9372 25.3232 88.3108 25.3197 88.6816 25.3401C89.0517 25.3613 89.4261 25.3712 89.8039 25.3712C90.1663 25.3712 90.5293 25.3648 90.8924 25.3514C91.2569 25.3387 91.6213 25.3387 91.9865 25.3514C92.7535 25.3782 93.5205 25.3613 94.2875 25.3007C95.0559 25.2407 95.825 25.2175 96.5941 25.2302ZM93.34 27.5142C93.2329 27.4994 93.1144 27.4889 92.9847 27.4832C92.8564 27.4762 92.726 27.5058 92.5928 27.5735C92.5378 28.356 92.5209 29.1342 92.542 29.9083C92.5624 30.683 92.5857 31.4677 92.6125 32.2629C92.9093 32.3023 93.1884 32.3157 93.45 32.3023C93.7129 32.2896 93.9724 32.2896 94.2283 32.3023C94.499 32.3305 94.7478 32.2904 94.9755 32.1811C95.4077 32.0196 95.7453 31.8004 95.9879 31.5241C96.2304 31.2477 96.3516 30.8607 96.3516 30.3623C96.3516 30.2142 96.341 30.069 96.3206 29.928C96.2994 29.787 96.2896 29.6489 96.2896 29.5135C96.3178 29.271 96.2839 29.0496 96.1881 28.848C96.0936 28.645 95.9935 28.4561 95.8863 28.2812C95.6981 27.9711 95.4084 27.7624 95.0178 27.6552C94.7337 27.5615 94.4539 27.5142 94.1775 27.5142C93.9012 27.5142 93.622 27.5142 93.34 27.5142Z" fill="white"/>
<path d="M109.205 25.0075C109.877 24.9532 110.537 24.9568 111.184 25.0188C111.831 25.0794 112.465 25.2098 113.085 25.4108C113.677 25.6011 114.192 25.8845 114.63 26.2623C115.068 26.6388 115.449 27.0886 115.772 27.6131C115.84 27.7357 115.917 27.8542 116.003 27.9684C116.092 28.0833 116.163 28.2073 116.218 28.3406C116.257 28.4498 116.287 28.5619 116.308 28.6761C116.328 28.791 116.325 28.9215 116.297 29.0681C115.947 29.1231 115.593 29.133 115.236 29.0991C114.879 29.0653 114.532 29.0554 114.196 29.0681C114.102 29.0159 114.038 28.9553 114.004 28.8876C113.97 28.8199 113.94 28.7593 113.914 28.7043C113.779 28.3681 113.579 28.0995 113.316 27.8979C113.053 27.6948 112.753 27.5397 112.417 27.4326C111.905 27.2578 111.366 27.1901 110.801 27.2296C110.706 27.2296 110.619 27.2401 110.539 27.2606C110.458 27.2817 110.37 27.305 110.276 27.3311C110.006 27.4255 109.829 27.5806 109.749 27.7963C109.668 28.0128 109.702 28.2553 109.851 28.5239C109.973 28.7537 110.141 28.9426 110.355 29.0907C110.626 29.2789 110.902 29.4601 111.184 29.6349C111.468 29.8097 111.744 29.9923 112.013 30.1819C112.269 30.3568 112.525 30.5189 112.78 30.6669C113.036 30.8157 113.286 30.9842 113.53 31.1717C113.839 31.4142 114.154 31.6398 114.478 31.8485C114.801 32.0571 115.098 32.2961 115.369 32.5647C116.204 33.3472 116.641 34.3243 116.683 35.4973C116.683 35.8343 116.642 36.1572 116.562 36.4674C116.481 36.7761 116.386 37.0849 116.277 37.3951C116.196 37.5854 116.081 37.7575 115.933 37.9111C115.786 38.0655 115.624 38.21 115.448 38.3454C114.978 38.7233 114.467 39.0102 113.914 39.2054C113.361 39.4014 112.787 39.5325 112.194 39.6002C111.507 39.694 110.821 39.7335 110.133 39.7187C109.446 39.7053 108.766 39.6178 108.094 39.4564C107.528 39.3084 106.988 39.1096 106.475 38.8614C105.963 38.6119 105.485 38.2911 105.04 37.8999C104.906 37.7927 104.738 37.6588 104.535 37.4966C104.334 37.3352 104.2 37.1737 104.132 37.0116C104.105 36.9439 104.156 36.8269 104.284 36.6591C104.412 36.4899 104.502 36.3652 104.555 36.2841C104.716 36.0416 104.899 35.7991 105.102 35.5566C105.17 35.4889 105.24 35.4226 105.313 35.3564C105.388 35.2887 105.5 35.2619 105.646 35.2746C105.7 35.3141 105.762 35.3578 105.829 35.4043C105.897 35.4515 105.957 35.5086 106.01 35.5763C106.2 35.8188 106.429 36.0486 106.698 36.2643C106.967 36.4808 107.237 36.6556 107.507 36.7888C107.736 36.9115 107.979 37.0398 108.235 37.1752C108.49 37.3091 108.726 37.3888 108.943 37.4148C109.722 37.6855 110.551 37.6996 111.427 37.4571C111.614 37.4029 111.746 37.2922 111.819 37.1244C111.894 36.9552 111.918 36.7769 111.892 36.5886C111.865 36.399 111.791 36.2502 111.669 36.1431C111.44 35.9556 111.204 35.7737 110.962 35.5989C110.719 35.4226 110.477 35.2534 110.234 35.0913C109.978 34.9299 109.722 34.7684 109.467 34.6063C109.211 34.4448 108.948 34.2975 108.678 34.1636C108.531 34.0677 108.383 33.9662 108.235 33.859C108.086 33.7519 107.931 33.6644 107.77 33.5968C107.324 33.4219 106.946 33.1731 106.636 32.8495C106.327 32.5266 106.005 32.2165 105.669 31.919C105.249 31.5566 104.953 31.1224 104.778 30.6162C104.603 30.1107 104.528 29.575 104.555 29.0089C104.609 27.9712 105.021 27.0688 105.79 26.3018C105.937 26.1538 106.095 26.0325 106.264 25.9381C106.433 25.8422 106.605 25.7541 106.78 25.673C107.17 25.4982 107.564 25.3508 107.961 25.2303C108.357 25.1083 108.772 25.0343 109.205 25.0075Z" fill="white"/>
</g>
</svg>
