<svg width="35" height="35" viewBox="0 0 35 35" fill="none" xmlns="http://www.w3.org/2000/svg">
<path d="M35 5.3446e-06L35 30C35 32.7614 32.7614 35 30 35L5 35C2.23858 35 9.78538e-08 32.7614 2.18559e-07 30L1.5299e-06 3.8147e-06L35 5.3446e-06Z" fill="white"/>
<path d="M27 19.5C27 20.0523 26.5523 20.5 26 20.5L20.5 20.5L20.5 26C20.5 26.5523 20.0523 27 19.5 27L15.5 27C14.9477 27 14.5 26.5523 14.5 26L14.5 20.5L9 20.5C8.44772 20.5 8 20.0523 8 19.5L8 15.5C8 14.9477 8.44772 14.5 9 14.5L14.5 14.5L14.5 9C14.5 8.44772 14.9477 8.00001 15.5 8L19.5 8.00001C20.0523 8.00001 20.5 8.44772 20.5 9.00001L20.5 14.5L26 14.5C26.5523 14.5 27 14.9477 27 15.5L27 19.5Z" fill="#202020"/>
</svg>
